<svg width="1600" height="960" viewBox="0 0 1600 960" fill="none" xmlns="http://www.w3.org/2000/svg">
  <rect width="1600" height="960" fill="#111418"/>
  <rect y="640" width="1600" height="320" fill="#171C20"/>
  <rect x="56" y="130" width="1488" height="420" rx="8" fill="#151B20" stroke="#2B343B" stroke-width="4"/>
  <rect x="90" y="166" width="320" height="350" rx="8" fill="#0E1216" stroke="#303A42" stroke-width="3"/>
  <rect x="432" y="166" width="290" height="164" rx="8" fill="#0E1216" stroke="#303A42" stroke-width="3"/>
  <rect x="432" y="352" width="290" height="164" rx="8" fill="#0E1216" stroke="#303A42" stroke-width="3"/>
  <rect x="744" y="166" width="350" height="350" rx="8" fill="#0E1216" stroke="#303A42" stroke-width="3"/>
  <rect x="1118" y="166" width="390" height="350" rx="8" fill="#0E1216" stroke="#303A42" stroke-width="3"/>
  <rect x="108" y="190" width="140" height="18" rx="4" fill="#F1665D"/>
  <rect x="108" y="226" width="268" height="12" rx="4" fill="#3FC8BE" opacity="0.9"/>
  <rect x="108" y="252" width="210" height="12" rx="4" fill="#45D07B" opacity="0.85"/>
  <rect x="108" y="278" width="188" height="12" rx="4" fill="#F0BC57" opacity="0.85"/>
  <rect x="108" y="318" width="270" height="72" rx="8" fill="#171F25"/>
  <path d="M132 350H354" stroke="#45D07B" stroke-width="6" stroke-linecap="round"/>
  <path d="M132 372H286" stroke="#F0BC57" stroke-width="6" stroke-linecap="round"/>
  <path d="M132 394H236" stroke="#F1665D" stroke-width="6" stroke-linecap="round"/>
  <rect x="108" y="430" width="120" height="54" rx="8" fill="#1E2A31"/>
  <rect x="242" y="430" width="136" height="54" rx="8" fill="#1E2A31"/>
  <rect x="454" y="194" width="100" height="12" rx="4" fill="#3FC8BE"/>
  <rect x="454" y="226" width="238" height="80" rx="8" fill="#171F25"/>
  <path d="M474 286C492 246 520 226 560 226C600 226 626 246 640 286" stroke="#45D07B" stroke-width="6" stroke-linecap="round"/>
  <path d="M474 274C496 268 520 266 546 266C584 266 616 270 652 282" stroke="#F0BC57" stroke-width="6" stroke-linecap="round"/>
  <rect x="454" y="380" width="220" height="104" rx="8" fill="#171F25"/>
  <rect x="472" y="404" width="100" height="14" rx="4" fill="#F1665D"/>
  <rect x="472" y="434" width="182" height="14" rx="4" fill="#3FC8BE"/>
  <rect x="472" y="462" width="150" height="14" rx="4" fill="#45D07B"/>
  <rect x="774" y="190" width="142" height="14" rx="4" fill="#F0BC57"/>
  <rect x="774" y="228" width="294" height="256" rx="8" fill="#171F25"/>
  <path d="M806 436L854 392L908 418L982 332L1042 350" stroke="#F1665D" stroke-width="10" stroke-linecap="round" stroke-linejoin="round"/>
  <path d="M806 388H1048" stroke="#273038" stroke-width="4" stroke-dasharray="8 10"/>
  <path d="M806 334H1048" stroke="#273038" stroke-width="4" stroke-dasharray="8 10"/>
  <rect x="1144" y="190" width="156" height="14" rx="4" fill="#45D07B"/>
  <rect x="1144" y="228" width="338" height="110" rx="8" fill="#171F25"/>
  <rect x="1166" y="252" width="112" height="18" rx="4" fill="#F1665D"/>
  <rect x="1294" y="252" width="90" height="18" rx="4" fill="#3FC8BE"/>
  <rect x="1400" y="252" width="58" height="18" rx="4" fill="#F0BC57"/>
  <rect x="1166" y="286" width="292" height="16" rx="4" fill="#273038"/>
  <rect x="1144" y="356" width="338" height="128" rx="8" fill="#171F25"/>
  <circle cx="1212" cy="420" r="28" fill="#F1665D"/>
  <circle cx="1308" cy="420" r="28" fill="#F0BC57"/>
  <circle cx="1404" cy="420" r="28" fill="#45D07B"/>
  <rect x="84" y="676" width="1432" height="220" rx="8" fill="#1A2026" stroke="#303A42" stroke-width="4"/>
  <rect x="116" y="708" width="334" height="158" rx="8" fill="#0E1216"/>
  <rect x="482" y="708" width="334" height="158" rx="8" fill="#0E1216"/>
  <rect x="848" y="708" width="334" height="158" rx="8" fill="#0E1216"/>
  <rect x="1214" y="708" width="270" height="158" rx="8" fill="#0E1216"/>
  <path d="M144 826H420" stroke="#3FC8BE" stroke-width="8" stroke-linecap="round"/>
  <path d="M144 794H380" stroke="#45D07B" stroke-width="8" stroke-linecap="round"/>
  <path d="M510 826H786" stroke="#F0BC57" stroke-width="8" stroke-linecap="round"/>
  <path d="M510 794H754" stroke="#F1665D" stroke-width="8" stroke-linecap="round"/>
  <path d="M876 826H1152" stroke="#45D07B" stroke-width="8" stroke-linecap="round"/>
  <path d="M876 794H1116" stroke="#3FC8BE" stroke-width="8" stroke-linecap="round"/>
  <path d="M1244 826H1452" stroke="#F1665D" stroke-width="8" stroke-linecap="round"/>
  <path d="M1244 794H1420" stroke="#F0BC57" stroke-width="8" stroke-linecap="round"/>
</svg>
