<svg width="160" height="160" viewBox="0 0 160 160" fill="none" xmlns="http://www.w3.org/2000/svg">
  <rect width="160" height="160" rx="12" fill="#171D23"/>
  <rect x="12" y="12" width="136" height="28" rx="8" fill="#45D07B"/>
  <circle cx="80" cy="80" r="34" fill="#D8AA7A"/>
  <path d="M46 70C52 46 66 34 80 34C94 34 108 46 114 70V72H46V70Z" fill="#11181F"/>
  <circle cx="68" cy="80" r="4" fill="#22272D"/>
  <circle cx="92" cy="80" r="4" fill="#22272D"/>
  <path d="M60 98C68 104 92 104 100 98" stroke="#7E5338" stroke-width="4" stroke-linecap="round"/>
  <path d="M54 128C60 111 72 101 80 101C88 101 100 111 106 128" fill="#F0BC57"/>
  <rect x="30" y="128" width="100" height="18" rx="8" fill="#232C33"/>
  <text x="80" y="31" fill="#111418" font-size="12" font-family="Arial, sans-serif" text-anchor="middle">CLOUD</text>
</svg>
